<svg xmlns="http://www.w3.org/2000/svg" width="420" height="300" viewBox="0 0 420 300" role="img" aria-label="Kiro Spec Library">
<defs>
  <linearGradient id="gBodyV" x1="0" y1="0" x2="0.25" y2="1">
    <stop offset="0" stop-color="#ffffff" stop-opacity=".97"/>
    <stop offset=".34" stop-color="#7c5cfc" stop-opacity=".94"/>
    <stop offset=".74" stop-color="#5b3fd0" stop-opacity="0.91"/>
    <stop offset="1" stop-color="#4263eb" stop-opacity="0.76"/>
  </linearGradient>
  <linearGradient id="gRimV" x1="0" y1="0" x2="1" y2="1">
    <stop offset="0" stop-color="#5b3fd0" stop-opacity=".55"/>
    <stop offset="1" stop-color="#4263eb" stop-opacity=".12"/>
  </linearGradient>
  <radialGradient id="gHaloV" cx=".5" cy=".5" r=".5">
    <stop offset="0" stop-color="#7c5cfc" stop-opacity=".55"/>
    <stop offset=".45" stop-color="#5b3fd0" stop-opacity=".22"/>
    <stop offset="1" stop-color="#5b3fd0" stop-opacity="0"/>
  </radialGradient>
  <radialGradient id="gSheenV" cx=".5" cy=".5" r=".5">
    <stop offset="0" stop-color="#ffffff" stop-opacity=".55"/>
    <stop offset=".6" stop-color="#ffffff" stop-opacity=".18"/>
    <stop offset="1" stop-color="#ffffff" stop-opacity="0"/>
  </radialGradient>
</defs>
<rect width="420" height="300" fill="#ffffff"/><path d="M151.0 94.8C151.0 55.7 177.4 24 210.0 24C242.6 24 269.0 55.7 269.0 94.8L269.0 164Q249.3 211.2 229.7 164Q210.0 211.2 190.3 164Q170.7 211.2 151.0 164L151.0 94.8Z" fill="url(#gBodyV)"/><path d="M151.0 94.8C151.0 55.7 177.4 24 210.0 24C242.6 24 269.0 55.7 269.0 94.8L269.0 164Q249.3 211.2 229.7 164Q210.0 211.2 190.3 164Q170.7 211.2 151.0 164L151.0 94.8Z" fill="none" stroke="url(#gRimV)" stroke-width="1.9" stroke-linejoin="round"/><ellipse cx="187.6" cy="58.2" rx="18.9" ry="28.3" fill="url(#gSheenV)" transform="rotate(-18 187.6 58.2)"/><ellipse cx="188.2" cy="91.1" rx="7.3" ry="10.1" fill="#1b1533" opacity=".88"/><ellipse cx="185.8" cy="87.6" rx="2.2" ry="2.6" fill="#ffffff" opacity=".75"/><ellipse cx="231.8" cy="91.1" rx="7.3" ry="10.1" fill="#1b1533" opacity=".88"/><ellipse cx="229.5" cy="87.6" rx="2.2" ry="2.6" fill="#ffffff" opacity=".75"/><g fill="none" stroke="#e8a80c" stroke-width="3.3" stroke-linecap="round" opacity=".95"><circle cx="188.2" cy="91.1" r="17.5"/><circle cx="231.8" cy="91.1" r="17.5"/><path d="M205.6 88.6Q210.0 80.2 214.4 88.6"/><path d="M170.7 89.0L152.4 83.4"/><path d="M249.3 89.0L267.6 83.4"/></g><circle cx="188.2" cy="91.1" r="15.8" fill="#e8a80c" opacity=".10"/><circle cx="231.8" cy="91.1" r="15.8" fill="#e8a80c" opacity=".10"/><path d="M178.6 97.2L190.8 81.5" stroke="#ffffff" stroke-width="3.0" stroke-linecap="round" opacity=".45" fill="none"/><path d="M66.012 225.52H73.084Q73.344 229.16 75.97 231.16199999999998Q78.596 233.164 82.392 233.164Q85.66799999999999 233.164 87.66999999999999 231.916Q89.672 230.668 89.672 228.172Q89.672 226.144 88.216 224.922Q86.75999999999999 223.7 83.692 223.128L77.50399999999999 221.93200000000002Q72.928 221.048 70.12 218.422Q67.312 215.796 67.312 211.636Q67.312 208.464 69.132 205.96800000000002Q70.952 203.472 74.202 202.06799999999998Q77.452 200.664 81.508 200.664Q88.216 200.664 92.012 203.914Q95.80799999999999 207.164 96.11999999999999 212.624H89.048Q88.94399999999999 209.92000000000002 86.96799999999999 208.15200000000002Q84.99199999999999 206.38400000000001 81.196 206.38400000000001Q78.076 206.38400000000001 76.1 207.632Q74.124 208.88 74.124 211.064Q74.124 213.04 75.632 214.002Q77.14 214.964 80.25999999999999 215.588L86.396 216.784Q90.972 217.668 93.75399999999999 220.268Q96.536 222.868 96.536 227.184Q96.536 230.616 94.846 233.268Q93.15599999999999 235.92 89.90599999999999 237.428Q86.65599999999999 238.936 82.08 238.936Q74.852 238.936 70.64 235.322Q66.428 231.708 66.012 225.52ZM101.05999999999999 212.624H107.404V213.768Q107.404 214.86 107.196 216.264Q109.84799999999998 211.792 115.51599999999999 211.792Q118.844 211.792 121.36599999999999 213.534Q123.88799999999999 215.276 125.26599999999999 218.37Q126.64399999999999 221.464 126.64399999999999 225.468Q126.64399999999999 229.472 125.16199999999999 232.54000000000002Q123.67999999999999 235.608 121.07999999999998 237.272Q118.47999999999999 238.936 115.25599999999999 238.936Q112.24 238.936 110.39399999999999 237.792Q108.54799999999999 236.648 107.196 234.516Q107.404 235.92 107.404 236.96V248.608H101.05999999999999ZM120.196 225.364Q120.196 221.568 118.454 219.202Q116.71199999999999 216.836 113.696 216.836Q110.78399999999999 216.836 108.964 219.15Q107.14399999999999 221.464 107.14399999999999 225.364Q107.14399999999999 229.16 108.964 231.552Q110.78399999999999 233.944 113.696 233.944Q116.60799999999999 233.944 118.40199999999999 231.57799999999997Q120.196 229.212 120.196 225.364ZM129.55599999999998 225.26Q129.55599999999998 221.308 131.194 218.24Q132.832 215.172 135.744 213.482Q138.656 211.792 142.296 211.792Q148.06799999999998 211.792 151.29199999999997 215.48399999999998Q154.516 219.176 154.516 225.468V226.872H136.05599999999998Q136.108 229.94 137.876 231.942Q139.644 233.944 142.504 233.944Q144.636 233.944 146.118 232.826Q147.6 231.708 147.912 229.732H154.35999999999999Q154.1 232.332 152.56599999999997 234.438Q151.03199999999998 236.544 148.432 237.74Q145.832 238.936 142.504 238.936Q138.708 238.936 135.76999999999998 237.324Q132.832 235.712 131.194 232.644Q129.55599999999998 229.576 129.55599999999998 225.26ZM142.244 216.524Q139.696 216.524 137.98000000000002 218.136Q136.264 219.748 136.004 222.296H148.016Q147.912 219.696 146.352 218.11Q144.792 216.524 142.244 216.524ZM157.48 225.312Q157.48 221.204 159.19599999999997 218.13600000000002Q160.91199999999998 215.068 163.928 213.43Q166.944 211.792 170.636 211.792Q175.992 211.792 179.08599999999998 214.652Q182.17999999999998 217.512 182.648 222.192H176.2Q176.04399999999998 219.904 174.61399999999998 218.37Q173.184 216.836 170.636 216.836Q167.724 216.836 165.826 219.098Q163.928 221.36 163.928 225.364Q163.928 229.16 165.748 231.552Q167.56799999999998 233.944 170.48 233.944Q173.184 233.944 174.692 232.358Q176.2 230.772 176.45999999999998 228.328H182.908Q182.232 233.32 179.034 236.128Q175.83599999999998 238.936 170.32399999999998 238.936Q164.292 238.936 160.886 235.296Q157.48 231.656 157.48 225.312Z" fill="#7c5cfc"/><path d="M198.09199999999998 201.6H204.904V232.228H223.208V238.0H198.09199999999998ZM226.484 212.624H232.828V238.0H226.484ZM226.32799999999997 202.12H232.932V208.776H226.32799999999997ZM244.892 234.516Q245.1 235.816 245.1 236.96V238.0H238.756V201.6H245.1V213.768Q245.1 214.6 244.892 216.264Q247.596 211.792 252.952 211.792Q256.072 211.792 258.698 213.45600000000002Q261.324 215.12 262.884 218.214Q264.44399999999996 221.308 264.44399999999996 225.416Q264.44399999999996 229.576 262.98799999999994 232.644Q261.532 235.712 258.932 237.324Q256.332 238.936 253.05599999999998 238.936Q250.04 238.936 248.012 237.74Q245.98399999999998 236.544 244.892 234.516ZM257.996 225.416Q257.996 221.62 256.12399999999997 219.228Q254.25199999999998 216.836 251.33999999999997 216.836Q248.428 216.836 246.582 219.228Q244.736 221.62 244.736 225.416Q244.736 229.16 246.582 231.552Q248.428 233.944 251.33999999999997 233.944Q254.25199999999998 233.944 256.12399999999997 231.57799999999997Q257.996 229.212 257.996 225.416ZM268.864 212.624H275.20799999999997V214.548Q275.20799999999997 215.952 274.99999999999994 217.2Q277.54799999999994 211.792 282.436 211.792Q283.164 211.792 283.78799999999995 211.948V218.084Q282.95599999999996 217.876 281.96799999999996 217.876Q278.84799999999996 217.876 277.02799999999996 219.67000000000002Q275.20799999999997 221.464 275.20799999999997 225.416V238.0H268.864ZM286.07599999999996 231.032Q286.07599999999996 227.028 288.702 225.13Q291.328 223.232 295.95599999999996 222.608L299.596 222.14Q301.104 221.93200000000002 301.754 221.38600000000002Q302.404 220.84 302.404 219.852Q302.404 218.448 301.286 217.486Q300.168 216.524 298.24399999999997 216.524Q296.06 216.524 294.70799999999997 217.668Q293.356 218.812 293.14799999999997 220.84H286.596Q286.90799999999996 216.784 289.976 214.288Q293.044 211.792 297.88 211.792Q303.548 211.792 306.148 214.678Q308.748 217.564 308.748 223.076V238.0H302.87199999999996V236.96Q302.87199999999996 235.92 303.132 234.516Q302.03999999999996 236.544 299.986 237.74Q297.93199999999996 238.936 294.812 238.936Q292.57599999999996 238.936 290.548 237.974Q288.52 237.012 287.298 235.21800000000002Q286.07599999999996 233.424 286.07599999999996 231.032ZM302.61199999999997 228.172V225.416Q302.19599999999997 225.78 301.52 226.014Q300.844 226.248 299.596 226.508L297.51599999999996 226.924Q295.072 227.392 293.798 228.276Q292.524 229.16 292.524 230.772Q292.524 232.38400000000001 293.668 233.32Q294.812 234.256 296.52799999999996 234.256Q299.07599999999996 234.256 300.84399999999994 232.54000000000002Q302.61199999999997 230.824 302.61199999999997 228.172ZM314.312 212.624H320.656V214.548Q320.656 215.952 320.448 217.2Q322.996 211.792 327.884 211.792Q328.612 211.792 329.236 211.948V218.084Q328.404 217.876 327.416 217.876Q324.296 217.876 322.476 219.67000000000002Q320.656 221.464 320.656 225.416V238.0H314.312ZM339.636 237.792 329.704 212.624H336.82800000000003L342.23600000000005 229.004Q342.704 230.304 343.06800000000004 232.02Q343.22400000000005 231.136 343.848 229.004L348.99600000000004 212.624H355.65200000000004L342.288 248.608H335.528Z" fill="#16181c"/><path d="M118.35 267.075H119.559Q119.61099999999999 268.063 120.28699999999999 268.635Q120.963 269.207 122.042 269.207Q123.14699999999999 269.207 123.7515 268.7585Q124.356 268.31 124.356 267.556Q124.356 266.945 123.8945 266.6005Q123.43299999999999 266.256 122.54899999999999 266.048L121.19699999999999 265.736Q120.06599999999999 265.476 119.36399999999999 264.8455Q118.66199999999999 264.215 118.66199999999999 263.227Q118.66199999999999 262.499 119.091 261.9205Q119.52 261.342 120.28049999999999 261.017Q121.041 260.692 121.99 260.692Q123.45899999999999 260.692 124.37549999999999 261.4395Q125.292 262.187 125.36999999999999 263.448H124.161Q124.09599999999999 262.642 123.5045 262.1675Q122.913 261.693 121.964 261.693Q121.08 261.693 120.495 262.096Q119.91 262.499 119.91 263.123Q119.91 263.708 120.3 264.072Q120.69 264.436 121.496 264.618L123.10799999999999 264.982Q124.265 265.255 124.9345 265.8725Q125.604 266.49 125.604 267.478Q125.604 268.232 125.1685 268.84950000000003Q124.73299999999999 269.467 123.92699999999999 269.831Q123.121 270.195 122.029 270.195Q120.937 270.195 120.10499999999999 269.818Q119.273 269.441 118.818 268.73249999999996Q118.363 268.024 118.35 267.075ZM129.92 260.9H133.469Q134.834 260.9 135.7115 261.498Q136.589 262.096 136.589 263.487Q136.589 264.865 135.72449999999998 265.46299999999997Q134.85999999999999 266.061 133.469 266.061H131.103V270.0H129.92ZM135.38 263.487Q135.38 261.888 133.456 261.888H131.103V265.073H133.456Q135.38 265.073 135.38 263.487ZM140.736 260.9H146.651V261.888H141.919V264.865H146.44299999999998V265.866H141.919V268.999H146.807V270.0H140.736ZM150.66799999999998 265.398Q150.66799999999998 264.007 151.2335 262.9345Q151.79899999999998 261.862 152.79999999999998 261.27700000000004Q153.801 260.692 155.04899999999998 260.692Q156.128 260.692 156.97299999999998 261.1015Q157.81799999999998 261.511 158.325 262.226Q158.832 262.941 158.92299999999997 263.838H157.623Q157.44099999999997 262.824 156.765 262.2585Q156.08899999999997 261.693 154.99699999999999 261.693Q154.07399999999998 261.693 153.37849999999997 262.14149999999995Q152.683 262.59 152.2995 263.4285Q151.916 264.267 151.916 265.398Q151.916 266.529 152.30599999999998 267.3935Q152.69599999999997 268.258 153.39799999999997 268.726Q154.1 269.194 154.99699999999999 269.194Q156.10199999999998 269.194 156.80399999999997 268.622Q157.50599999999997 268.05 157.701 267.062H158.93599999999998Q158.754 268.518 157.701 269.3565Q156.648 270.195 155.023 270.195Q153.72299999999998 270.195 152.74149999999997 269.6165Q151.76 269.038 151.214 267.9525Q150.66799999999998 266.867 150.66799999999998 265.398ZM165.423 261.888H162.277V260.9H169.739V261.888H166.606V270.0H165.423ZM173.70399999999998 260.9H177.565Q178.891 260.9 179.6515 261.524Q180.41199999999998 262.148 180.41199999999998 263.292Q180.41199999999998 264.098 179.9115 264.696Q179.41099999999997 265.294 178.73499999999999 265.502Q179.398 265.619 179.8075 266.165Q180.21699999999998 266.711 180.21699999999998 267.582V270.0H179.034V267.907Q179.034 266.841 178.5985 266.4315Q178.16299999999998 266.022 177.123 266.022H174.887V270.0H173.70399999999998ZM179.20299999999997 263.435Q179.20299999999997 262.668 178.7025 262.278Q178.202 261.888 177.279 261.888H174.887V265.021H177.279Q178.202 265.021 178.7025 264.6115Q179.20299999999997 264.202 179.20299999999997 263.435ZM187.523 260.9H188.953L192.606 270.0H191.293L190.25300000000001 267.296H186.17100000000002L185.131 270.0H183.883ZM189.876 266.308 188.472 262.668 188.21200000000002 261.979 187.952 262.668 186.548 266.308ZM196.45399999999998 260.9H197.637V268.999H202.38199999999998V270.0H196.45399999999998ZM211.98899999999998 260.9H213.172V268.999H217.91699999999997V270.0H211.98899999999998ZM221.88199999999998 260.9H223.065V270.0H221.88199999999998ZM228.03099999999998 260.9H231.57999999999998Q232.90599999999998 260.9 233.68599999999998 261.472Q234.46599999999998 262.044 234.46599999999998 263.188Q234.46599999999998 263.903 234.03049999999996 264.4425Q233.59499999999997 264.982 232.945 265.19Q233.76399999999998 265.45 234.22549999999998 266.0285Q234.68699999999998 266.607 234.68699999999998 267.439Q234.68699999999998 268.843 233.73149999999998 269.42150000000004Q232.77599999999998 270.0 231.242 270.0H228.03099999999998ZM233.47799999999998 267.374Q233.47799999999998 266.607 232.99699999999999 266.17150000000004Q232.516 265.736 231.385 265.736H229.214V268.999H231.43699999999998Q232.48999999999998 268.999 232.98399999999998 268.596Q233.47799999999998 268.193 233.47799999999998 267.374ZM233.25699999999998 263.279Q233.25699999999998 262.629 232.8345 262.2585Q232.41199999999998 261.888 231.50199999999998 261.888H229.214V264.735H231.41099999999997Q232.295 264.735 232.77599999999998 264.3515Q233.25699999999998 263.968 233.25699999999998 263.279ZM239.11999999999998 260.9H242.981Q244.307 260.9 245.0675 261.524Q245.82799999999997 262.148 245.82799999999997 263.292Q245.82799999999997 264.098 245.3275 264.696Q244.82699999999997 265.294 244.15099999999998 265.502Q244.814 265.619 245.2235 266.165Q245.63299999999998 266.711 245.63299999999998 267.582V270.0H244.45V267.907Q244.45 266.841 244.0145 266.4315Q243.57899999999998 266.022 242.539 266.022H240.303V270.0H239.11999999999998ZM244.61899999999997 263.435Q244.61899999999997 262.668 244.11849999999998 262.278Q243.618 261.888 242.695 261.888H240.303V265.021H242.695Q243.618 265.021 244.11849999999998 264.6115Q244.61899999999997 264.202 244.61899999999997 263.435ZM252.93899999999996 260.9H254.36899999999997L258.022 270.0H256.70899999999995L255.66899999999998 267.296H251.587L250.54699999999997 270.0H249.29899999999998ZM255.29199999999997 266.308 253.88799999999998 262.668 253.628 261.979 253.36799999999997 262.668 251.96399999999997 266.308ZM261.87 260.9H265.731Q267.057 260.9 267.8175 261.524Q268.57800000000003 262.148 268.57800000000003 263.292Q268.57800000000003 264.098 268.0775 264.696Q267.577 265.294 266.901 265.502Q267.564 265.619 267.97350000000006 266.165Q268.38300000000004 266.711 268.38300000000004 267.582V270.0H267.2V267.907Q267.2 266.841 266.7645 266.4315Q266.329 266.022 265.289 266.022H263.053V270.0H261.87ZM267.369 263.435Q267.369 262.668 266.86850000000004 262.278Q266.368 261.888 265.445 261.888H263.053V265.021H265.445Q266.368 265.021 266.86850000000004 264.6115Q267.369 264.202 267.369 263.435ZM273.154 260.9H274.337V270.0H273.154ZM281.838 260.9H283.26800000000003L286.921 270.0H285.608L284.568 267.296H280.486L279.446 270.0H278.198ZM284.19100000000003 266.308 282.787 262.668 282.527 261.979 282.267 262.668 280.863 266.308ZM290.769 260.9H292.55L297.165 268.661V267.517V260.9H298.361V270.0H296.71000000000004L291.952 262.044V263.149V270.0H290.769Z" fill="#868e96"/>
</svg>
